<svg xmlns="http://www.w3.org/2000/svg" xmlns:xlink="http://www.w3.org/1999/xlink" contentStyleType="text/css" data-diagram-type="DESCRIPTION" height="494px" preserveAspectRatio="none" style="width:1298px;height:494px;background:#FFFFFF;" version="1.1" viewBox="0 0 1298 494" width="1298px" zoomAndPan="magnify"><defs/><g><!--cluster GraphitiLib--><g class="cluster" data-entity="GraphitiLib" data-source-line="3" data-uid="ent0003" id="cluster_GraphitiLib"><rect fill="none" height="343.89" rx="2.5" ry="2.5" style="stroke:#181818;stroke-width:1;" width="1038" x="218.61" y="144.8"/><rect fill="none" height="10" style="stroke:#181818;stroke-width:1;" width="15" x="1236.61" y="149.8"/><rect fill="none" height="2" style="stroke:#181818;stroke-width:1;" width="4" x="1234.61" y="151.8"/><rect fill="none" height="2" style="stroke:#181818;stroke-width:1;" width="4" x="1234.61" y="155.8"/><text fill="#000000" font-family="sans-serif" font-size="14" font-weight="bold" lengthAdjust="spacing" textLength="125.1182" x="675.0509" y="170.7951">Graphiti Library</text></g><!--entity Graphiti--><g class="entity" data-entity="Graphiti" data-source-line="4" data-uid="ent0004" id="entity_Graphiti"><rect fill="#F1F1F1" height="46.2969" rx="2.5" ry="2.5" style="stroke:#181818;stroke-width:0.5;" width="160.21" x="526.51" y="179.8"/><rect fill="#F1F1F1" height="10" style="stroke:#181818;stroke-width:0.5;" width="15" x="666.72" y="184.8"/><rect fill="#F1F1F1" height="2" style="stroke:#181818;stroke-width:0.5;" width="4" x="664.72" y="186.8"/><rect fill="#F1F1F1" height="2" style="stroke:#181818;stroke-width:0.5;" width="4" x="664.72" y="190.8"/><text fill="#000000" font-family="sans-serif" font-size="14" lengthAdjust="spacing" textLength="120.21" x="541.51" y="212.7951">Graphiti Instance</text></g><!--entity Database Driver--><g class="entity" data-entity="Database Driver" data-source-line="5" data-uid="ent0005" id="entity_Database Driver"><rect fill="#F1F1F1" height="46.2969" rx="2.5" ry="2.5" style="stroke:#181818;stroke-width:0.5;" width="154.3311" x="234.45" y="303.1"/><rect fill="#F1F1F1" height="10" style="stroke:#181818;stroke-width:0.5;" width="15" x="368.7811" y="308.1"/><rect fill="#F1F1F1" height="2" style="stroke:#181818;stroke-width:0.5;" width="4" x="366.7811" y="310.1"/><rect fill="#F1F1F1" height="2" style="stroke:#181818;stroke-width:0.5;" width="4" x="366.7811" y="314.1"/><text fill="#000000" font-family="sans-serif" font-size="14" lengthAdjust="spacing" textLength="114.3311" x="249.45" y="336.0951">Database Driver</text></g><!--entity LLM Client--><g class="entity" data-entity="LLM Client" data-source-line="6" data-uid="ent0006" id="entity_LLM Client"><rect fill="#F1F1F1" height="46.2969" rx="2.5" ry="2.5" style="stroke:#181818;stroke-width:0.5;" width="112.6592" x="487.28" y="303.1"/><rect fill="#F1F1F1" height="10" style="stroke:#181818;stroke-width:0.5;" width="15" x="579.9392" y="308.1"/><rect fill="#F1F1F1" height="2" style="stroke:#181818;stroke-width:0.5;" width="4" x="577.9392" y="310.1"/><rect fill="#F1F1F1" height="2" style="stroke:#181818;stroke-width:0.5;" width="4" x="577.9392" y="314.1"/><text fill="#000000" font-family="sans-serif" font-size="14" lengthAdjust="spacing" textLength="72.6592" x="502.28" y="336.0951">LLM Client</text></g><!--entity Embedder Client--><g class="entity" data-entity="Embedder Client" data-source-line="7" data-uid="ent0007" id="entity_Embedder Client"><rect fill="#F1F1F1" height="46.2969" rx="2.5" ry="2.5" style="stroke:#181818;stroke-width:0.5;" width="157.1064" x="783.06" y="303.1"/><rect fill="#F1F1F1" height="10" style="stroke:#181818;stroke-width:0.5;" width="15" x="920.1664" y="308.1"/><rect fill="#F1F1F1" height="2" style="stroke:#181818;stroke-width:0.5;" width="4" x="918.1664" y="310.1"/><rect fill="#F1F1F1" height="2" style="stroke:#181818;stroke-width:0.5;" width="4" x="918.1664" y="314.1"/><text fill="#000000" font-family="sans-serif" font-size="14" lengthAdjust="spacing" textLength="117.1064" x="798.06" y="336.0951">Embedder Client</text></g><!--entity Graph Database--><g class="entity" data-entity="Graph Database" data-source-line="8" data-uid="ent0008" id="entity_Graph Database"><rect fill="#F1F1F1" height="46.2969" rx="2.5" ry="2.5" style="stroke:#181818;stroke-width:0.5;" width="154.1943" x="784.51" y="426.39"/><rect fill="#F1F1F1" height="10" style="stroke:#181818;stroke-width:0.5;" width="15" x="918.7043" y="431.39"/><rect fill="#F1F1F1" height="2" style="stroke:#181818;stroke-width:0.5;" width="4" x="916.7043" y="433.39"/><rect fill="#F1F1F1" height="2" style="stroke:#181818;stroke-width:0.5;" width="4" x="916.7043" y="437.39"/><text fill="#000000" font-family="sans-serif" font-size="14" lengthAdjust="spacing" textLength="114.1943" x="799.51" y="459.3851">Graph Database</text></g><!--entity User--><g class="entity" data-entity="User" data-source-line="1" data-uid="ent0002" id="entity_User"><ellipse cx="512.6136" cy="14" fill="#F1F1F1" rx="8" ry="8" style="stroke:#181818;stroke-width:0.5;"/><path d="M512.6136,22 L512.6136,49 M499.6136,30 L525.6136,30 M512.6136,49 L499.6136,64 M512.6136,49 L525.6136,64" fill="none" style="stroke:#181818;stroke-width:0.5;"/><text fill="#000000" font-family="sans-serif" font-size="14" lengthAdjust="spacing" textLength="119.2871" x="452.97" y="78.4951">User (Developer)</text></g><!--entity MCPServer--><g class="entity" data-entity="MCPServer" data-source-line="11" data-uid="ent0009" id="entity_MCPServer"><rect fill="#F1F1F1" height="46.2969" rx="2.5" ry="2.5" style="stroke:#181818;stroke-width:0.5;" width="195.2236" x="7" y="179.8"/><rect fill="#F1F1F1" height="10" style="stroke:#181818;stroke-width:0.5;" width="15" x="182.2236" y="184.8"/><rect fill="#F1F1F1" height="2" style="stroke:#181818;stroke-width:0.5;" width="4" x="180.2236" y="186.8"/><rect fill="#F1F1F1" height="2" style="stroke:#181818;stroke-width:0.5;" width="4" x="180.2236" y="190.8"/><text fill="#000000" font-family="sans-serif" font-size="14" lengthAdjust="spacing" textLength="155.2236" x="22" y="212.7951">MCP Server (Optional)</text></g><!--link User to Graphiti--><g class="link" data-entity-1="User" data-entity-2="Graphiti" data-source-line="13" data-uid="lnk10" id="link_User_Graphiti"><path d="M452.67,49.61 C382.22,57.8 279.56,78.59 318.61,128.8 C343.95,161.38 444.1689,180.9712 520.2389,191.7112" fill="none" id="User-to-Graphiti" style="stroke:#181818;stroke-width:1;"/><polygon fill="#181818" points="526.18,192.55,517.8276,187.3311,521.2291,191.851,516.7092,195.2525,526.18,192.55" style="stroke:#181818;stroke-width:1;"/><text fill="#000000" font-family="sans-serif" font-size="13" lengthAdjust="spacing" textLength="149.646" x="319.61" y="124.8669">Initializes &amp; Configures</text></g><!--link User to Graphiti--><g class="link" data-entity-1="User" data-entity-2="Graphiti" data-source-line="18" data-uid="lnk14" id="link_User_Graphiti"><path d="M503.75,81.92 C501.99,97.17 502.5,114.54 509.61,128.8 C520.38,150.41 535.8264,164.159 555.2464,176.249" fill="none" id="User-to-Graphiti-1" style="stroke:#181818;stroke-width:1;"/><polygon fill="#181818" points="560.34,179.42,554.8136,171.2677,556.0953,176.7775,550.5856,178.0592,560.34,179.42" style="stroke:#181818;stroke-width:1;"/><text fill="#000000" font-family="sans-serif" font-size="13" lengthAdjust="spacing" textLength="160.1323" x="510.61" y="124.8669">Add Data (add_memory)</text></g><!--link User to Graphiti--><g class="link" data-entity-1="User" data-entity-2="Graphiti" data-source-line="24" data-uid="lnk19" id="link_User_Graphiti"><path d="M572.43,52.56 C608.88,60.8 652.71,77.59 675.61,111.8 C691.62,135.71 671.7534,158.1014 647.5734,175.9914" fill="none" id="User-to-Graphiti-2" style="stroke:#181818;stroke-width:1;"/><polygon fill="#181818" points="642.75,179.56,652.3641,177.4226,646.7695,176.5861,647.6059,170.9915,642.75,179.56" style="stroke:#181818;stroke-width:1;"/><text fill="#000000" font-family="sans-serif" font-size="13" lengthAdjust="spacing" textLength="97.2524" x="681.7" y="124.8669">Query (search)</text></g><!--link Graphiti to User--><g class="link" data-entity-1="Graphiti" data-entity-2="User" data-source-line="28" data-uid="lnk23" id="link_Graphiti_User"><path d="M687.04,190.43 C749.65,177.99 820.78,154.04 787.61,111.8 C761.4,78.41 651.2968,60.2285 578.5868,51.4585" fill="none" id="Graphiti-to-User" style="stroke:#181818;stroke-width:1;"/><polygon fill="#181818" points="572.63,50.74,581.0862,55.789,577.594,51.3387,582.0442,47.8465,572.63,50.74" style="stroke:#181818;stroke-width:1;"/><text fill="#000000" font-family="sans-serif" font-size="13" lengthAdjust="spacing" textLength="151.4614" x="796.6" y="124.8669">Returns Search Results</text></g><!--link Graphiti to Database Driver--><g class="link" data-entity-1="Graphiti" data-entity-2="Database Driver" data-source-line="14" data-uid="lnk11" id="link_Graphiti_Database Driver"><path d="M526.34,205.98 C443.94,209.96 323.76,221.68 294.61,256.1 C283.67,269.02 286.5648,282.5849 294.1648,297.3549" fill="none" id="Graphiti-to-Database Driver" style="stroke:#181818;stroke-width:1;"/><polygon fill="#181818" points="296.91,302.69,296.3489,292.8571,294.6223,298.2441,289.2354,296.5174,296.91,302.69" style="stroke:#181818;stroke-width:1;"/><text fill="#000000" font-family="sans-serif" font-size="13" lengthAdjust="spacing" textLength="31.0591" x="295.61" y="269.1669">Uses</text></g><!--link Graphiti to LLM Client--><g class="link" data-entity-1="Graphiti" data-entity-2="LLM Client" data-source-line="15" data-uid="lnk12" id="link_Graphiti_LLM Client"><path d="M526.27,208.64 C456.45,214.6 362.96,227.75 339.61,256.1 C334.81,261.93 334.98,267.13 339.61,273.1 C348.79,284.92 423.8072,301.7697 480.9272,313.2297" fill="none" id="Graphiti-to-LLM Client" style="stroke:#181818;stroke-width:1;"/><polygon fill="#181818" points="486.81,314.41,478.7727,308.7178,481.9077,313.4264,477.199,316.5615,486.81,314.41" style="stroke:#181818;stroke-width:1;"/><text fill="#000000" font-family="sans-serif" font-size="13" lengthAdjust="spacing" textLength="31.0591" x="340.61" y="269.1669">Uses</text></g><!--link Graphiti to LLM Client--><g class="link" data-entity-1="Graphiti" data-entity-2="LLM Client" data-source-line="19" data-uid="lnk15" id="link_Graphiti_LLM Client"><path d="M526.11,215.56 C479.32,224.13 426.83,237.55 412.61,256.1 C388.36,287.73 435.6336,305.1507 481.3336,314.9607" fill="none" id="Graphiti-to-LLM Client-1" style="stroke:#181818;stroke-width:1;"/><polygon fill="#181818" points="487.2,316.22,479.24,310.4202,482.3114,315.1706,477.5609,318.242,487.2,316.22" style="stroke:#181818;stroke-width:1;"/><text fill="#000000" font-family="sans-serif" font-size="13" lengthAdjust="spacing" textLength="149.9761" x="413.61" y="269.1669">Extracts Entities/Edges</text></g><!--link Graphiti to LLM Client--><g class="link" data-entity-1="Graphiti" data-entity-2="LLM Client" data-source-line="26" data-uid="lnk21" id="link_Graphiti_LLM Client"><path d="M594.91,226.48 C583.59,248.27 569.3172,275.7662 558.0172,297.5062" fill="none" id="Graphiti-to-LLM Client-2" style="stroke:#181818;stroke-width:1;"/><polygon fill="#181818" points="555.25,302.83,562.95,296.6891,557.556,298.3935,555.8516,292.9995,555.25,302.83" style="stroke:#181818;stroke-width:1;"/><text fill="#000000" font-family="sans-serif" font-size="13" lengthAdjust="spacing" textLength="140.1436" x="579.88" y="269.1669">(Optional) Re-ranking</text></g><!--link Graphiti to Embedder Client--><g class="link" data-entity-1="Graphiti" data-entity-2="Embedder Client" data-source-line="16" data-uid="lnk13" id="link_Graphiti_Embedder Client"><path d="M661.97,226.57 C682.99,235.43 707.06,245.91 728.61,256.1 C759.67,270.78 788.769,285.8806 814.799,299.8006" fill="none" id="Graphiti-to-Embedder Client" style="stroke:#181818;stroke-width:1;"/><polygon fill="#181818" points="820.09,302.63,814.0398,294.8585,815.6809,300.2721,810.2673,301.9132,820.09,302.63" style="stroke:#181818;stroke-width:1;"/><text fill="#000000" font-family="sans-serif" font-size="13" lengthAdjust="spacing" textLength="31.0591" x="762.86" y="269.1669">Uses</text></g><!--link Graphiti to Embedder Client--><g class="link" data-entity-1="Graphiti" data-entity-2="Embedder Client" data-source-line="21" data-uid="lnk17" id="link_Graphiti_Embedder Client"><path d="M686.87,214.05 C724.2,221.46 767.9,234.23 802.61,256.1 C821.3,267.87 833.7948,282.5099 844.3548,297.8299" fill="none" id="Graphiti-to-Embedder Client-1" style="stroke:#181818;stroke-width:1;"/><polygon fill="#181818" points="847.76,302.77,845.9456,293.0897,844.9223,298.6532,839.3588,297.63,847.76,302.77" style="stroke:#181818;stroke-width:1;"/><text fill="#000000" font-family="sans-serif" font-size="13" lengthAdjust="spacing" textLength="134.894" x="822.87" y="269.1669">Creates Embeddings</text></g><!--link Graphiti to Embedder Client--><g class="link" data-entity-1="Graphiti" data-entity-2="Embedder Client" data-source-line="27" data-uid="lnk22" id="link_Graphiti_Embedder Client"><path d="M687,203.9 C781.6,205.76 930.33,215.32 965.61,256.1 C982,275.03 967.91,288.5166 941.49,300.2966" fill="none" id="Graphiti-to-Embedder Client-2" style="stroke:#181818;stroke-width:1;"/><polygon fill="#181818" points="936.01,302.74,945.8589,302.7282,940.5766,300.7039,942.601,295.4216,936.01,302.74" style="stroke:#181818;stroke-width:1;"/><text fill="#000000" font-family="sans-serif" font-size="13" lengthAdjust="spacing" textLength="194.1177" x="972.6" y="269.1669">(Optional) Semantic Matching</text></g><!--link LLM Client to Graph Database--><g class="link" data-entity-1="LLM Client" data-entity-2="Graph Database" data-source-line="20" data-uid="lnk16" id="link_LLM Client_Graph Database"><path d="M600.05,349.4 C635.01,363.07 680.87,380.89 721.61,396.39 C747.43,406.22 770.3753,414.8013 794.9353,423.9213" fill="none" id="LLM Client-to-Graph Database" style="stroke:#181818;stroke-width:1;"/><polygon fill="#181818" points="800.56,426.01,793.5154,419.1272,795.8727,424.2695,790.7305,426.6268,800.56,426.01" style="stroke:#181818;stroke-width:1;"/><text fill="#000000" font-family="sans-serif" font-size="13" lengthAdjust="spacing" textLength="130.1206" x="722.61" y="392.4569">Stores Nodes/Edges</text></g><!--link Embedder Client to Graph Database--><g class="link" data-entity-1="Embedder Client" data-entity-2="Graph Database" data-source-line="22" data-uid="lnk18" id="link_Embedder Client_Graph Database"><path d="M861.61,349.78 C861.61,371.56 861.61,398.39 861.61,420.13" fill="none" id="Embedder Client-to-Graph Database" style="stroke:#181818;stroke-width:1;"/><polygon fill="#181818" points="861.61,426.13,865.61,417.13,861.61,421.13,857.61,417.13,861.61,426.13" style="stroke:#181818;stroke-width:1;"/><text fill="#000000" font-family="sans-serif" font-size="13" lengthAdjust="spacing" textLength="126.0581" x="862.61" y="392.4569">Stores Embeddings</text></g><!--link Graphiti to Graph Database--><g class="link" data-entity-1="Graphiti" data-entity-2="Graph Database" data-source-line="25" data-uid="lnk20" id="link_Graphiti_Graph Database"><path d="M687.17,205.44 C836.33,209.06 1143.35,220.74 1175.61,256.1 C1255.34,343.47 1061.7008,403.6872 944.9108,431.1372" fill="none" id="Graphiti-to-Graph Database" style="stroke:#181818;stroke-width:1;"/><polygon fill="#181818" points="939.07,432.51,948.7465,434.3447,943.9374,431.366,946.916,426.5569,939.07,432.51" style="stroke:#181818;stroke-width:1;"/><text fill="#000000" font-family="sans-serif" font-size="13" lengthAdjust="spacing" textLength="96.7192" x="1193.85" y="330.8069">Retrieves Data</text></g><!--link User to MCPServer--><g class="link" data-entity-1="User" data-entity-2="MCPServer" data-source-line="30" data-uid="lnk24" id="link_User_MCPServer"><path d="M446.759,47.4879 C350.119,52.7779 171.84,68.14 125.61,111.8 C107.39,129.01 103.6383,152.7203 103.4383,173.3103" fill="none" id="User-MCPServer" style="stroke:#181818;stroke-width:1;"/><polygon fill="#181818" points="452.75,47.16,443.5448,43.6579,447.7575,47.4333,443.9821,51.6459,452.75,47.16" style="stroke:#181818;stroke-width:1;"/><polygon fill="#181818" points="103.38,179.31,107.4672,170.3493,103.4286,174.3102,99.4676,170.2716,103.38,179.31" style="stroke:#181818;stroke-width:1;"/><text fill="#000000" font-family="sans-serif" font-size="13" lengthAdjust="spacing" textLength="175.7222" x="126.61" y="124.8669">API Interaction (e.g., REST)</text></g><!--link MCPServer to Graphiti--><g class="link" data-entity-1="MCPServer" data-entity-2="Graphiti" data-source-line="31" data-uid="lnk25" id="link_MCPServer_Graphiti"><path d="M202.59,202.95 C297.04,202.95 432.23,202.95 520.25,202.95" fill="none" id="MCPServer-to-Graphiti" style="stroke:#181818;stroke-width:1;"/><polygon fill="#181818" points="526.25,202.95,517.25,198.95,521.25,202.95,517.25,206.95,526.25,202.95" style="stroke:#181818;stroke-width:1;"/><text fill="#000000" font-family="sans-serif" font-size="13" lengthAdjust="spacing" textLength="119.1836" x="304.87" y="196.0169">Orchestrates Calls</text></g><!--SRC=[XLBBRi903BplLrWvL20LUg-gIbM8AYGebBJdoYGkh9fia7U3Igl-Uxr1FF8GdBAnPspFs9YuWY5ujyJG6z6Mic93t0y0BVYWKacHRmf3na7mpBXPQwTXefUClAjGXw34u5S1TE77nZeq2TK8TUm87IxH4enORuc3UdOocKAOQNat4b6-f3ILuJkpLIiub0xKNqtED9n3JBprqcSRfmk3sLwvPFO9fIfd1eF7uzXmBtBaYvd-8Git41RcKwzA9gkE64zeIHAcL6kYpgHr0veI3wZEqPxIjD8BFKpJZvpoWdVzYnsZRyUOE0kHSG8XUnUbAobVWrMyXfl2ZULun8EN8ZtIhiuUCg4JqZwbpKfQjM2N-vrHEqruBObtqBE4dAoRwjjL5-HOo-dRAdhHhDET26l0QBvaYkkQpsWnvIX69p15bwnRx4fEDLB9nWhQIv1VMsRkeFR10uydwfS-7yjDEl9xb3RGe-5gU0kBA7xhgnEmuT9CAfELvVjjX9XbLlq3]--></g></svg>